Bitcount_Grid_Single.ufo
<glyph name="px.ix0.iy2" format="2">
  <advance width="600"/>
  <outline>
    <contour>
      <point x="100" y="250" type="qcurve" smooth="yes"/>
      <point x="100" y="229"/>
      <point x="71" y="200"/>
      <point x="50" y="200" type="qcurve" smooth="yes"/>
      <point x="29" y="200"/>
      <point x="0" y="229"/>
      <point x="0" y="250" type="qcurve" smooth="yes"/>
      <point x="0" y="271"/>
      <point x="29" y="300"/>
      <point x="50" y="300" type="qcurve" smooth="yes"/>
      <point x="71" y="300"/>
      <point x="100" y="271"/>
    </contour>
  </outline>
</glyph>
<glyph name="px.ix0.iy3" format="2">
  <advance width="600"/>
  <outline>
    <contour>
      <point x="100" y="350" type="qcurve" smooth="yes"/>
      <point x="100" y="329"/>
      <point x="71" y="300"/>
      <point x="50" y="300" type="qcurve" smooth="yes"/>
      <point x="29" y="300"/>
      <point x="0" y="329"/>
      <point x="0" y="350" type="qcurve" smooth="yes"/>
      <point x="0" y="371"/>
      <point x="29" y="400"/>
      <point x="50" y="400" type="qcurve" smooth="yes"/>
      <point x="71" y="400"/>
      <point x="100" y="371"/>
    </contour>
  </outline>
</glyph>
<glyph name="px.ix0.iy4" format="2">
  <advance width="600"/>
  <outline>
    <contour>
      <point x="100" y="450" type="qcurve" smooth="yes"/>
      <point x="100" y="429"/>
      <point x="71" y="400"/>
      <point x="50" y="400" type="qcurve" smooth="yes"/>
      <point x="29" y="400"/>
      <point x="0" y="429"/>
      <point x="0" y="450" type="qcurve" smooth="yes"/>
      <point x="0" y="471"/>
      <point x="29" y="500"/>
      <point x="50" y="500" type="qcurve" smooth="yes"/>
      <point x="71" y="500"/>
      <point x="100" y="471"/>
    </contour>
  </outline>
</glyph>
<glyph name="px.ix0.iy5" format="2">
  <advance width="600"/>
  <outline>
    <contour>
      <point x="100" y="550" type="qcurve" smooth="yes"/>
      <point x="100" y="529"/>
      <point x="71" y="500"/>
      <point x="50" y="500" type="qcurve" smooth="yes"/>
      <point x="29" y="500"/>
      <point x="0" y="529"/>
      <point x="0" y="550" type="qcurve" smooth="yes"/>
      <point x="0" y="571"/>
      <point x="29" y="600"/>
      <point x="50" y="600" type="qcurve" smooth="yes"/>
      <point x="71" y="600"/>
      <point x="100" y="571"/>
    </contour>
  </outline>
</glyph>
<glyph name="px.ix0.iy6" format="2">
  <advance width="600"/>
  <outline>
    <contour>
      <point x="100" y="650" type="qcurve" smooth="yes"/>
      <point x="100" y="629"/>
      <point x="71" y="600"/>
      <point x="50" y="600" type="qcurve" smooth="yes"/>
      <point x="29" y="600"/>
      <point x="0" y="629"/>
      <point x="0" y="650" type="qcurve" smooth="yes"/>
      <point x="0" y="671"/>
      <point x="29" y="700"/>
      <point x="50" y="700" type="qcurve" smooth="yes"/>
      <point x="71" y="700"/>
      <point x="100" y="671"/>
    </contour>
  </outline>
</glyph>
<glyph name="px.ix1.iy0" format="2">
  <advance width="600"/>
  <outline>
    <contour>
      <point x="200" y="50" type="qcurve" smooth="yes"/>
      <point x="200" y="29"/>
      <point x="171" y="0"/>
      <point x="150" y="0" type="qcurve" smooth="yes"/>
      <point x="129" y="0"/>
      <point x="100" y="29"/>
      <point x="100" y="50" type="qcurve" smooth="yes"/>
      <point x="100" y="71"/>
      <point x="129" y="100"/>
      <point x="150" y="100" type="qcurve" smooth="yes"/>
      <point x="171" y="100"/>
      <point x="200" y="71"/>
    </contour>
  </outline>
</glyph>
<glyph name="px.ix1.iy1" format="2">
  <advance width="600"/>
  <outline>
    <contour>
      <point x="200" y="150" type="qcurve" smooth="yes"/>
      <point x="200" y="129"/>
      <point x="171" y="100"/>
      <point x="150" y="100" type="qcurve" smooth="yes"/>
      <point x="129" y="100"/>
      <point x="100" y="129"/>
      <point x="100" y="150" type="qcurve" smooth="yes"/>
      <point x="100" y="171"/>
      <point x="129" y="200"/>
      <point x="150" y="200" type="qcurve" smooth="yes"/>
      <point x="171" y="200"/>
      <point x="200" y="171"/>
    </contour>
  </outline>
</glyph>
<glyph name="px.ix1.iy2" format="2">
  <advance width="600"/>
  <outline>
    <contour>
      <point x="200" y="250" type="qcurve" smooth="yes"/>
      <point x="200" y="229"/>
      <point x="171" y="200"/>
      <point x="150" y="200" type="qcurve" smooth="yes"/>
      <point x="129" y="200"/>
      <point x="100" y="229"/>
      <point x="100" y="250" type="qcurve" smooth="yes"/>
      <point x="100" y="271"/>
      <point x="129" y="300"/>
      <point x="150" y="300" type="qcurve" smooth="yes"/>
      <point x="171" y="300"/>
      <point x="200" y="271"/>
    </contour>
  </outline>
</glyph>
<glyph name="px.ix1.iy3" format="2">
  <advance width="600"/>
  <outline>
    <contour>
      <point x="200" y="350" type="qcurve" smooth="yes"/>
      <point x="200" y="329"/>
      <point x="171" y="300"/>
      <point x="150" y="300" type="qcurve" smooth="yes"/>
      <point x="129" y="300"/>
      <point x="100" y="329"/>
      <point x="100" y="350" type="qcurve" smooth="yes"/>
      <point x="100" y="371"/>
      <point x="129" y="400"/>
      <point x="150" y="400" type="qcurve" smooth="yes"/>
      <point x="171" y="400"/>
      <point x="200" y="371"/>
    </contour>
  </outline>
</glyph>
<glyph name="px.ix1.iy4" format="2">
  <advance width="600"/>
  <outline>
    <contour>
      <point x="200" y="450" type="qcurve" smooth="yes"/>
      <point x="200" y="429"/>
      <point x="171" y="400"/>
      <point x="150" y="400" type="qcurve" smooth="yes"/>
      <point x="129" y="400"/>
      <point x="100" y="429"/>
      <point x="100" y="450" type="qcurve" smooth="yes"/>
      <point x="100" y="471"/>
      <point x="129" y="500"/>
      <point x="150" y="500" type="qcurve" smooth="yes"/>
      <point x="171" y="500"/>
      <point x="200" y="471"/>
    </contour>
  </outline>
</glyph>
<glyph name="px.ix1.iy5" format="2">
  <advance width="600"/>
  <outline>
    <contour>
      <point x="200" y="550" type="qcurve" smooth="yes"/>
      <point x="200" y="529"/>
      <point x="171" y="500"/>
      <point x="150" y="500" type="qcurve" smooth="yes"/>
      <point x="129" y="500"/>
      <point x="100" y="529"/>
      <point x="100" y="550" type="qcurve" smooth="yes"/>
      <point x="100" y="571"/>
      <point x="129" y="600"/>
      <point x="150" y="600" type="qcurve" smooth="yes"/>
      <point x="171" y="600"/>
      <point x="200" y="571"/>
    </contour>
  </outline>
</glyph>
<glyph name="px.ix1.iy6" format="2">
  <advance width="600"/>
  <outline>
    <contour>
      <point x="200" y="650" type="qcurve" smooth="yes"/>
      <point x="200" y="629"/>
      <point x="171" y="600"/>
      <point x="150" y="600" type="qcurve" smooth="yes"/>
      <point x="129" y="600"/>
      <point x="100" y="629"/>
      <point x="100" y="650" type="qcurve" smooth="yes"/>
      <point x="100" y="671"/>
      <point x="129" y="700"/>
      <point x="150" y="700" type="qcurve" smooth="yes"/>
      <point x="171" y="700"/>
      <point x="200" y="671"/>
    </contour>
  </outline>
</glyph>
<glyph name="px.ix2.iy0" format="2">
  <advance width="600"/>
  <outline>
    <contour>
      <point x="300" y="50" type="qcurve" smooth="yes"/>
      <point x="300" y="29"/>
      <point x="271" y="0"/>
      <point x="250" y="0" type="qcurve" smooth="yes"/>
      <point x="229" y="0"/>
      <point x="200" y="29"/>
      <point x="200" y="50" type="qcurve" smooth="yes"/>
      <point x="200" y="71"/>
      <point x="229" y="100"/>
      <point x="250" y="100" type="qcurve" smooth="yes"/>
      <point x="271" y="100"/>
      <point x="300" y="71"/>
    </contour>
  </outline>
</glyph>
<glyph name="px.ix2.iy1" format="2">
  <advance width="600"/>
  <outline>
    <contour>
      <point x="300" y="150" type="qcurve" smooth="yes"/>
      <point x="300" y="129"/>
      <point x="271" y="100"/>
      <point x="250" y="100" type="qcurve" smooth="yes"/>
      <point x="229" y="100"/>
      <point x="200" y="129"/>
      <point x="200" y="150" type="qcurve" smooth="yes"/>
      <point x="200" y="171"/>
      <point x="229" y="200"/>
      <point x="250" y="200" type="qcurve" smooth="yes"/>
      <point x="271" y="200"/>
      <point x="300" y="171"/>
    </contour>
  </outline>
</glyph>
<glyph name="px.ix2.iy2" format="2">
  <advance width="600"/>
  <outline>
    <contour>
      <point x="300" y="250" type="qcurve" smooth="yes"/>
      <point x="300" y="229"/>
      <point x="271" y="200"/>
      <point x="250" y="200" type="qcurve" smooth="yes"/>
      <point x="229" y="200"/>
      <point x="200" y="229"/>
      <point x="200" y="250" type="qcurve" smooth="yes"/>
      <point x="200" y="271"/>
      <point x="229" y="300"/>
      <point x="250" y="300" type="qcurve" smooth="yes"/>
      <point x="271" y="300"/>
      <point x="300" y="271"/>
    </contour>
  </outline>
</glyph>
<glyph name="px.ix2.iy3" format="2">
  <advance width="600"/>
  <outline>
    <contour>
      <point x="300" y="350" type="qcurve" smooth="yes"/>
      <point x="300" y="329"/>
      <point x="271" y="300"/>
      <point x="250" y="300" type="qcurve" smooth="yes"/>
      <point x="229" y="300"/>
      <point x="200" y="329"/>
      <point x="200" y="350" type="qcurve" smooth="yes"/>
      <point x="200" y="371"/>
      <point x="229" y="400"/>
      <point x="250" y="400" type="qcurve" smooth="yes"/>
      <point x="271" y="400"/>
      <point x="300" y="371"/>
    </contour>
  </outline>
</glyph>
<glyph name="px.ix2.iy4" format="2">
  <advance width="600"/>
  <outline>
    <contour>
      <point x="300" y="450" type="qcurve" smooth="yes"/>
      <point x="300" y="429"/>
      <point x="271" y="400"/>
      <point x="250" y="400" type="qcurve" smooth="yes"/>
      <point x="229" y="400"/>
      <point x="200" y="429"/>
      <point x="200" y="450" type="qcurve" smooth="yes"/>
      <point x="200" y="471"/>
      <point x="229" y="500"/>
      <point x="250" y="500" type="qcurve" smooth="yes"/>
      <point x="271" y="500"/>
      <point x="300" y="471"/>
    </contour>
  </outline>
</glyph>
<glyph name="px.ix2.iy5" format="2">
  <advance width="600"/>
  <outline>
    <contour>
      <point x="300" y="550" type="qcurve" smooth="yes"/>
      <point x="300" y="529"/>
      <point x="271" y="500"/>
      <point x="250" y="500" type="qcurve" smooth="yes"/>
      <point x="229" y="500"/>
      <point x="200" y="529"/>
      <point x="200" y="550" type="qcurve" smooth="yes"/>
      <point x="200" y="571"/>
      <point x="229" y="600"/>
      <point x="250" y="600" type="qcurve" smooth="yes"/>
      <point x="271" y="600"/>
      <point x="300" y="571"/>
    </contour>
  </outline>
</glyph>
<glyph name="px.ix3.iy0" format="2">
  <advance width="600"/>
  <outline>
    <contour>
      <point x="400" y="50" type="qcurve" smooth="yes"/>
      <point x="400" y="29"/>
      <point x="371" y="0"/>
      <point x="350" y="0" type="qcurve" smooth="yes"/>
      <point x="329" y="0"/>
      <point x="300" y="29"/>
      <point x="300" y="50" type="qcurve" smooth="yes"/>
      <point x="300" y="71"/>
      <point x="329" y="100"/>
      <point x="350" y="100" type="qcurve" smooth="yes"/>
      <point x="371" y="100"/>
      <point x="400" y="71"/>
    </contour>
  </outline>
</glyph>
<glyph name="px.ix3.iy1" format="2">
  <advance width="600"/>
  <outline>
    <contour>
      <point x="400" y="150" type="qcurve" smooth="yes"/>
      <point x="400" y="129"/>
      <point x="371" y="100"/>
      <point x="350" y="100" type="qcurve" smooth="yes"/>
      <point x="329" y="100"/>
      <point x="300" y="129"/>
      <point x="300" y="150" type="qcurve" smooth="yes"/>
      <point x="300" y="171"/>
      <point x="329" y="200"/>
      <point x="350" y="200" type="qcurve" smooth="yes"/>
      <point x="371" y="200"/>
      <point x="400" y="171"/>
    </contour>
  </outline>
</glyph>
<glyph name="px.ix3.iy2" format="2">
  <advance width="600"/>
  <outline>
    <contour>
      <point x="400" y="250" type="qcurve" smooth="yes"/>
      <point x="400" y="229"/>
      <point x="371" y="200"/>
      <point x="350" y="200" type="qcurve" smooth="yes"/>
      <point x="329" y="200"/>
      <point x="300" y="229"/>
      <point x="300" y="250" type="qcurve" smooth="yes"/>
      <point x="300" y="271"/>
      <point x="329" y="300"/>
      <point x="350" y="300" type="qcurve" smooth="yes"/>
      <point x="371" y="300"/>
      <point x="400" y="271"/>
    </contour>
  </outline>
</glyph>
<glyph name="px.ix3.iy3" format="2">
  <advance width="600"/>
  <outline>
    <contour>
      <point x="400" y="350" type="qcurve" smooth="yes"/>
      <point x="400" y="329"/>
      <point x="371" y="300"/>
      <point x="350" y="300" type="qcurve" smooth="yes"/>
      <point x="329" y="300"/>
      <point x="300" y="329"/>
      <point x="300" y="350" type="qcurve" smooth="yes"/>
      <point x="300" y="371"/>
      <point x="329" y="400"/>
      <point x="350" y="400" type="qcurve" smooth="yes"/>
      <point x="371" y="400"/>
      <point x="400" y="371"/>
    </contour>
  </outline>
</glyph>
<glyph name="px.ix3.iy4" format="2">
  <advance width="600"/>
  <outline>
    <contour>
      <point x="400" y="450" type="qcurve" smooth="yes"/>
      <point x="400" y="429"/>
      <point x="371" y="400"/>
      <point x="350" y="400" type="qcurve" smooth="yes"/>
      <point x="329" y="400"/>
      <point x="300" y="429"/>
      <point x="300" y="450" type="qcurve" smooth="yes"/>
      <point x="300" y="471"/>
      <point x="329" y="500"/>
      <point x="350" y="500" type="qcurve" smooth="yes"/>
      <point x="371" y="500"/>
      <point x="400" y="471"/>
    </contour>
  </outline>
</glyph>
<glyph name="px.ix3.iy5" format="2">
  <advance width="600"/>
  <outline>
    <contour>
      <point x="400" y="550" type="qcurve" smooth="yes"/>
      <point x="400" y="529"/>
      <point x="371" y="500"/>
      <point x="350" y="500" type="qcurve" smooth="yes"/>
      <point x="329" y="500"/>
      <point x="300" y="529"/>
      <point x="300" y="550" type="qcurve" smooth="yes"/>
      <point x="300" y="571"/>
      <point x="329" y="600"/>
      <point x="350" y="600" type="qcurve" smooth="yes"/>
      <point x="371" y="600"/>
      <point x="400" y="571"/>
    </contour>
  </outline>
</glyph>
<glyph name="px.ix4.iy-1" format="2">
  <advance width="600"/>
  <outline>
    <contour>
      <point x="500" y="-50" type="qcurve" smooth="yes"/>
      <point x="500" y="-71"/>
      <point x="471" y="-100"/>
      <point x="450" y="-100" type="qcurve" smooth="yes"/>
      <point x="429" y="-100"/>
      <point x="400" y="-71"/>
      <point x="400" y="-50" type="qcurve" smooth="yes"/>
      <point x="400" y="-29"/>
      <point x="429" y="0"/>
      <point x="450" y="0" type="qcurve" smooth="yes"/>
      <point x="471" y="0"/>
      <point x="500" y="-29"/>
    </contour>
  </outline>
</glyph>
<glyph name="px.ix4.iy1" format="2">
  <advance width="600"/>
  <outline>
    <contour>
      <point x="500" y="150" type="qcurve" smooth="yes"/>
      <point x="500" y="129"/>
      <point x="471" y="100"/>
      <point x="450" y="100" type="qcurve" smooth="yes"/>
      <point x="429" y="100"/>
      <point x="400" y="129"/>
      <point x="400" y="150" type="qcurve" smooth="yes"/>
      <point x="400" y="171"/>
      <point x="429" y="200"/>
      <point x="450" y="200" type="qcurve" smooth="yes"/>
      <point x="471" y="200"/>
      <point x="500" y="171"/>
    </contour>
  </outline>
</glyph>
<glyph name="px.ix4.iy2" format="2">
  <advance width="600"/>
  <outline>
    <contour>
      <point x="500" y="250" type="qcurve" smooth="yes"/>
      <point x="500" y="229"/>
      <point x="471" y="200"/>
      <point x="450" y="200" type="qcurve" smooth="yes"/>
      <point x="429" y="200"/>
      <point x="400" y="229"/>
      <point x="400" y="250" type="qcurve" smooth="yes"/>
      <point x="400" y="271"/>
      <point x="429" y="300"/>
      <point x="450" y="300" type="qcurve" smooth="yes"/>
      <point x="471" y="300"/>
      <point x="500" y="271"/>
    </contour>
  </outline>
</glyph>
<glyph name="px.ix4.iy3" format="2">
  <advance width="600"/>
  <outline>
    <contour>
      <point x="500" y="350" type="qcurve" smooth="yes"/>
      <point x="500" y="329"/>
      <point x="471" y="300"/>
      <point x="450" y="300" type="qcurve" smooth="yes"/>
      <point x="429" y="300"/>
      <point x="400" y="329"/>
      <point x="400" y="350" type="qcurve" smooth="yes"/>
      <point x="400" y="371"/>
      <point x="429" y="400"/>
      <point x="450" y="400" type="qcurve" smooth="yes"/>
      <point x="471" y="400"/>
      <point x="500" y="371"/>
    </contour>
  </outline>
</glyph>
<glyph name="px.ix4.iy4" format="2">
  <advance width="600"/>
  <outline>
    <contour>
      <point x="500" y="450" type="qcurve" smooth="yes"/>
      <point x="500" y="429"/>
      <point x="471" y="400"/>
      <point x="450" y="400" type="qcurve" smooth="yes"/>
      <point x="429" y="400"/>
      <point x="400" y="429"/>
      <point x="400" y="450" type="qcurve" smooth="yes"/>
      <point x="400" y="471"/>
      <point x="429" y="500"/>
      <point x="450" y="500" type="qcurve" smooth="yes"/>
      <point x="471" y="500"/>
      <point x="500" y="471"/>
    </contour>
  </outline>
</glyph>
<glyph name="px.ix4.iy5" format="2">
  <advance width="600"/>
  <outline>
    <contour>
      <point x="500" y="550" type="qcurve" smooth="yes"/>
      <point x="500" y="529"/>
      <point x="471" y="500"/>
      <point x="450" y="500" type="qcurve" smooth="yes"/>
      <point x="429" y="500"/>
      <point x="400" y="529"/>
      <point x="400" y="550" type="qcurve" smooth="yes"/>
      <point x="400" y="571"/>
      <point x="429" y="600"/>
      <point x="450" y="600" type="qcurve" smooth="yes"/>
      <point x="471" y="600"/>
      <point x="500" y="571"/>
    </contour>
  </outline>
</glyph>
<glyph name="px.ix4.iy6" format="2">
  <advance width="600"/>
  <outline>
    <contour>
      <point x="500" y="650" type="qcurve" smooth="yes"/>
      <point x="500" y="629"/>
      <point x="471" y="600"/>
      <point x="450" y="600" type="qcurve" smooth="yes"/>
      <point x="429" y="600"/>
      <point x="400" y="629"/>
      <point x="400" y="650" type="qcurve" smooth="yes"/>
      <point x="400" y="671"/>
      <point x="429" y="700"/>
      <point x="450" y="700" type="qcurve" smooth="yes"/>
      <point x="471" y="700"/>
      <point x="500" y="671"/>
    </contour>
  </outline>
</glyph>
<glyph name="px.ix5.iy0" format="2">
  <advance width="600"/>
  <outline>
    <contour>
      <point x="600" y="50" type="qcurve" smooth="yes"/>
      <point x="600" y="29"/>
      <point x="571" y="0"/>
      <point x="550" y="0" type="qcurve" smooth="yes"/>
      <point x="529" y="0"/>
      <point x="500" y="29"/>
      <point x="500" y="50" type="qcurve" smooth="yes"/>
      <point x="500" y="71"/>
      <point x="529" y="100"/>
      <point x="550" y="100" type="qcurve" smooth="yes"/>
      <point x="571" y="100"/>
      <point x="600" y="71"/>
    </contour>
  </outline>
</glyph>
<glyph name="px.ix5.iy1" format="2">
  <advance width="600"/>
  <outline>
    <contour>
      <point x="600" y="150" type="qcurve" smooth="yes"/>
      <point x="600" y="129"/>
      <point x="571" y="100"/>
      <point x="550" y="100" type="qcurve" smooth="yes"/>
      <point x="529" y="100"/>
      <point x="500" y="129"/>
      <point x="500" y="150" type="qcurve" smooth="yes"/>
      <point x="500" y="171"/>
      <point x="529" y="200"/>
      <point x="550" y="200" type="qcurve" smooth="yes"/>
      <point x="571" y="200"/>
      <point x="600" y="171"/>
    </contour>
  </outline>
</glyph>
<glyph name="px.ix5.iy2" format="2">
  <advance width="600"/>
  <outline>
    <contour>
      <point x="600" y="250" type="qcurve" smooth="yes"/>
      <point x="600" y="229"/>
      <point x="571" y="200"/>
      <point x="550" y="200" type="qcurve" smooth="yes"/>
      <point x="529" y="200"/>
      <point x="500" y="229"/>
      <point x="500" y="250" type="qcurve" smooth="yes"/>
      <point x="500" y="271"/>
      <point x="529" y="300"/>
      <point x="550" y="300" type="qcurve" smooth="yes"/>
      <point x="571" y="300"/>
      <point x="600" y="271"/>
    </contour>
  </outline>
</glyph>
<glyph name="px.ix5.iy3" format="2">
  <advance width="600"/>
  <outline>
    <contour>
      <point x="600" y="350" type="qcurve" smooth="yes"/>
      <point x="600" y="329"/>
      <point x="571" y="300"/>
      <point x="550" y="300" type="qcurve" smooth="yes"/>
      <point x="529" y="300"/>
      <point x="500" y="329"/>
      <point x="500" y="350" type="qcurve" smooth="yes"/>
      <point x="500" y="371"/>
      <point x="529" y="400"/>
      <point x="550" y="400" type="qcurve" smooth="yes"/>
      <point x="571" y="400"/>
      <point x="600" y="371"/>
    </contour>
  </outline>
</glyph>
<glyph name="px.ix5.iy4" format="2">
  <advance width="600"/>
  <outline>
    <contour>
      <point x="600" y="450" type="qcurve" smooth="yes"/>
      <point x="600" y="429"/>
      <point x="571" y="400"/>
      <point x="550" y="400" type="qcurve" smooth="yes"/>
      <point x="529" y="400"/>
      <point x="500" y="429"/>
      <point x="500" y="450" type="qcurve" smooth="yes"/>
      <point x="500" y="471"/>
      <point x="529" y="500"/>
      <point x="550" y="500" type="qcurve" smooth="yes"/>
      <point x="571" y="500"/>
      <point x="600" y="471"/>
    </contour>
  </outline>
</glyph>
<glyph name="px.ix5.iy5" format="2">
  <advance width="600"/>
  <outline>
    <contour>
      <point x="600" y="550" type="qcurve" smooth="yes"/>
      <point x="600" y="529"/>
      <point x="571" y="500"/>
      <point x="550" y="500" type="qcurve" smooth="yes"/>
      <point x="529" y="500"/>
      <point x="500" y="529"/>
      <point x="500" y="550" type="qcurve" smooth="yes"/>
      <point x="500" y="571"/>
      <point x="529" y="600"/>
      <point x="550" y="600" type="qcurve" smooth="yes"/>
      <point x="571" y="600"/>
      <point x="600" y="571"/>
    </contour>
  </outline>
</glyph>
<glyph name="px.ix5.iy6" format="2">
  <advance width="600"/>
  <outline>
    <contour>
      <point x="600" y="650" type="qcurve" smooth="yes"/>
      <point x="600" y="629"/>
      <point x="571" y="600"/>
      <point x="550" y="600" type="qcurve" smooth="yes"/>
      <point x="529" y="600"/>
      <point x="500" y="629"/>
      <point x="500" y="650" type="qcurve" smooth="yes"/>
      <point x="500" y="671"/>
      <point x="529" y="700"/>
      <point x="550" y="700" type="qcurve" smooth="yes"/>
      <point x="571" y="700"/>
      <point x="600" y="671"/>
    </contour>
  </outline>
</glyph>
